<svg width="68" height="15" viewBox="0 0 68 15" fill="none" xmlns="http://www.w3.org/2000/svg">
<path d="M12.274 6.362V12.822C11.058 13.7087 9.52533 14.152 7.676 14.152C5.624 14.152 3.95833 13.563 2.679 12.385C1.39967 11.207 0.76 9.60467 0.76 7.578C0.76 5.57667 1.425 3.97433 2.755 2.771C4.09767 1.56767 5.795 0.965999 7.847 0.965999C9.291 0.965999 10.5387 1.232 11.59 1.764V4.69C10.374 3.99333 9.12633 3.645 7.847 3.645C6.64367 3.645 5.68733 4.006 4.978 4.728C4.26867 5.43733 3.914 6.38733 3.914 7.578C3.914 8.78133 4.26233 9.73767 4.959 10.447C5.65567 11.1563 6.60567 11.511 7.809 11.511C8.35367 11.511 8.892 11.4287 9.424 11.264V8.851H7.353V6.362H12.274ZM17.31 4.367V6.153C17.4874 5.59567 17.7787 5.15233 18.184 4.823C18.602 4.481 19.0834 4.31 19.628 4.31C19.932 4.31 20.1727 4.33533 20.35 4.386V7.008C20.046 6.86867 19.6977 6.799 19.305 6.799C18.7097 6.799 18.2284 7.02067 17.861 7.464C17.4937 7.89467 17.31 8.471 17.31 9.193V14H14.536L14.555 4.367H17.31ZM25.8433 14.152C24.3359 14.152 23.1706 13.7023 22.3473 12.803C21.5239 11.891 21.1123 10.7257 21.1123 9.307C21.1123 7.825 21.5429 6.609 22.4043 5.659C23.2656 4.69633 24.4119 4.215 25.8433 4.215C27.3379 4.215 28.4969 4.67733 29.3203 5.602C30.1436 6.52667 30.5553 7.70467 30.5553 9.136C30.5553 10.5927 30.1373 11.796 29.3013 12.746C28.4779 13.6833 27.3253 14.152 25.8433 14.152ZM25.8243 6.4C25.2163 6.4 24.7603 6.65967 24.4563 7.179C24.1523 7.69833 24.0003 8.36967 24.0003 9.193C24.0003 10.0163 24.1523 10.694 24.4563 11.226C24.7729 11.7453 25.2416 12.005 25.8623 12.005C26.4703 12.005 26.9199 11.7517 27.2113 11.245C27.5153 10.7257 27.6673 10.0543 27.6673 9.231C27.6673 7.34367 27.0529 6.4 25.8243 6.4ZM34.7045 9.212C34.7552 10.0607 35.0085 10.7193 35.4645 11.188C35.9205 11.6567 36.5222 11.891 37.2695 11.891C38.0675 11.891 38.8339 11.6693 39.5685 11.226V13.544C38.8212 13.9493 37.9219 14.152 36.8705 14.152C35.4265 14.152 34.2359 13.696 33.2985 12.784C32.3612 11.8593 31.8925 10.6687 31.8925 9.212C31.9179 7.768 32.3865 6.57733 33.2985 5.64C34.2105 4.69 35.4582 4.215 37.0415 4.215C38.0169 4.215 38.8592 4.39867 39.5685 4.766V7.141C38.8972 6.723 38.1499 6.514 37.3265 6.514C36.5539 6.514 35.9269 6.74833 35.4455 7.217C34.9642 7.673 34.7172 8.338 34.7045 9.212ZM46.8408 8.3V8.072C46.7521 6.94467 46.2581 6.381 45.3588 6.381C44.9155 6.381 44.5228 6.54567 44.1808 6.875C43.8388 7.19167 43.6108 7.66667 43.4968 8.3H46.8408ZM48.8358 11.131V13.449C48.1771 13.8797 47.1701 14.095 45.8148 14.095C44.2315 14.095 42.9965 13.639 42.1098 12.727C41.2358 11.8023 40.7988 10.618 40.7988 9.174C40.7988 7.64133 41.2231 6.44433 42.0718 5.583C42.9331 4.709 43.9908 4.272 45.2448 4.272C46.5368 4.272 47.5565 4.652 48.3038 5.412C49.0511 6.15933 49.4248 7.28033 49.4248 8.775C49.4248 9.06633 49.3741 9.56667 49.2728 10.276H43.6108C43.8008 10.808 44.1301 11.2197 44.5988 11.511C45.0675 11.8023 45.6311 11.948 46.2898 11.948C47.2651 11.948 48.1138 11.6757 48.8358 11.131ZM54.1596 4.367V6.153C54.337 5.59567 54.6283 5.15233 55.0336 4.823C55.4516 4.481 55.933 4.31 56.4776 4.31C56.7816 4.31 57.0223 4.33533 57.1996 4.386V7.008C56.8956 6.86867 56.5473 6.799 56.1546 6.799C55.5593 6.799 55.078 7.02067 54.7106 7.464C54.3433 7.89467 54.1596 8.471 54.1596 9.193V14H51.3856L51.4046 4.367H54.1596ZM62.6929 14.152C61.1855 14.152 60.0202 13.7023 59.1969 12.803C58.3735 11.891 57.9619 10.7257 57.9619 9.307C57.9619 7.825 58.3925 6.609 59.2539 5.659C60.1152 4.69633 61.2615 4.215 62.6929 4.215C64.1875 4.215 65.3465 4.67733 66.1699 5.602C66.9932 6.52667 67.4049 7.70467 67.4049 9.136C67.4049 10.5927 66.9869 11.796 66.1509 12.746C65.3275 13.6833 64.1749 14.152 62.6929 14.152ZM62.6739 6.4C62.0659 6.4 61.6099 6.65967 61.3059 7.179C61.0019 7.69833 60.8499 8.36967 60.8499 9.193C60.8499 10.0163 61.0019 10.694 61.3059 11.226C61.6225 11.7453 62.0912 12.005 62.7119 12.005C63.3199 12.005 63.7695 11.7517 64.0609 11.245C64.3649 10.7257 64.5169 10.0543 64.5169 9.231C64.5169 7.34367 63.9025 6.4 62.6739 6.4Z" fill="url(#paint0_linear_1673_2)"/>
<defs>
<linearGradient id="paint0_linear_1673_2" x1="0" y1="9" x2="69" y2="9" gradientUnits="userSpaceOnUse">
<stop stop-color="#8DD35F"/>
<stop offset="1" stop-color="#59C268"/>
</linearGradient>
</defs>
</svg>
